<?xml version="1.0" encoding="utf-8"?>
<!-- Generator: Adobe Illustrator 23.0.1, SVG Export Plug-In . SVG Version: 6.00 Build 0)  -->
<svg version="1.1" id="Layer_1" xmlns="http://www.w3.org/2000/svg" xmlns:xlink="http://www.w3.org/1999/xlink" x="0px" y="0px"
	 viewBox="0 0 100 100" style="enable-background:new 0 0 100 100;" xml:space="preserve">
<path d="M93.6,59.2l-7.6-14l2.7-8.6c0.6-1.8,0.4-3.7-0.5-5.3s-2.3-2.9-4.1-3.4c-1.8-0.6-3.7-0.4-5.3,0.5c-0.5,0.3-1,0.6-1.5,1
	L65.8,8.4c-1-1.9-3.1-3.1-5.3-3.1H39.3c-2.2,0-4.2,1.2-5.3,3.1L23.8,27.1l-8,2.5c-1.8,0.6-3.2,1.8-4.1,3.4c-0.9,1.7-1,3.6-0.5,5.3
	c0.6,2,2.2,3.6,4,4.4L6.4,59.1c-1.1,2-0.9,4.5,0.4,6.4l13.3,18.3c1.1,1.5,2.9,2.5,4.9,2.5h17.8l6.4,6.4c1.4,1.4,3.2,2,5,2
	c1.8,0,3.6-0.7,4.9-2c1.7-1.7,2.4-4.2,1.9-6.4h15.7c2.1,0,4-1,5.1-2.8l11.6-18.2C94.5,63.5,94.6,61.1,93.6,59.2z M37.6,10.3
	c0.4-0.6,1-1,1.8-1h21.3c0.7,0,1.4,0.4,1.8,1l13,23.9c0.4,0.7,1.1,1.1,1.9,1c0.8-0.1,1.5-0.6,1.7-1.4l0.1-0.3
	c0.2-0.8,0.8-1.4,1.5-1.8c0.7-0.4,1.5-0.4,2.3-0.2c0.8,0.2,1.4,0.8,1.8,1.5c0.4,0.7,0.4,1.5,0.2,2.3l-3.9,12.4
	c-0.3,1.1-1.5,1.6-2.5,1.3L66,45.2c-0.8-0.2-1.4-0.8-1.8-1.5c-0.4-0.7-0.4-1.5-0.2-2.3c0.4-1.4,1.8-2.3,3.2-2.1
	c0.7,0.1,1.5-0.2,1.9-0.9c0.4-0.6,0.5-1.4,0.1-2.1L58.2,16.1c-0.4-0.6-1-1-1.8-1H43.5c-0.7,0-1.4,0.4-1.8,1l-6.7,12.1
	c-0.6-0.9-1.3-1.6-2.3-2.1c-1.1-0.6-2.3-0.8-3.5-0.6L37.6,10.3z M59.1,65.8c-1.3-1.3-3.1-2.1-5-2.1c-1.9,0-3.6,0.7-4.9,2.1l-6.4,6.4
	H30.1l-8.5-11.2l6.5-11.9c1.8,1.7,4.4,2.5,7,1.7c1.8-0.6,3.2-1.8,4.1-3.4c0.9-1.7,1-3.6,0.5-5.3l-2.8-8.8l7.8-14.1h10.6l9.2,16.7
	c-1.9,0.7-3.5,2.3-4.2,4.4c-0.6,1.8-0.4,3.7,0.5,5.3s2.3,2.9,4.1,3.4l8.3,2.6l5.2,9.5l-8.5,11.2H61C61.5,70,60.9,67.6,59.1,65.8z
	 M23.4,81.4L10.1,63.1c-0.5-0.6-0.5-1.5-0.1-2.1l10.2-18.7c0.4-0.6,0.3-1.4-0.1-2.1c-0.4-0.6-1.1-1-1.9-0.9
	c-1.4,0.1-2.7-0.7-3.1-2.1c-0.5-1.6,0.4-3.3,2-3.8l8.7-2.7c0,0,0,0,0,0l3.7-1.2c0.5-0.2,1.1-0.1,1.5,0.1c0.5,0.2,0.8,0.7,1,1.2
	l3.9,12.4c0.2,0.8,0.2,1.6-0.2,2.3c-0.4,0.7-1,1.2-1.8,1.5c-1.6,0.5-3.3-0.4-3.8-2L30,44.5c-0.2-0.8-0.9-1.3-1.7-1.4
	c-0.8-0.1-1.6,0.3-2,1l-8.9,16.1c-0.4,0.7-0.3,1.5,0.2,2.2l9.9,13c0.4,0.5,1,0.8,1.6,0.8h10c-0.5,0.9-0.8,1.9-0.8,3s0.3,2.1,0.8,3
	H25C24.4,82.3,23.8,82,23.4,81.4z M90,63.2L78.4,81.3c-0.4,0.6-1,0.9-1.7,0.9h-19c-0.8,0-1.5,0.5-1.8,1.2s-0.2,1.6,0.4,2.2
	c1.1,1.2,1.1,3.1,0,4.2c-1.2,1.2-3.1,1.2-4.2,0l-7-7c0,0,0,0,0,0l-2.2-2.2c-0.4-0.4-0.6-0.9-0.6-1.4s0.2-1,0.6-1.4l2.2-2.2
	c0,0,0,0,0,0l7-7c1.2-1.2,3.1-1.2,4.2,0c1.2,1.2,1.2,3,0,4.2c-0.6,0.6-0.7,1.4-0.4,2.2s1,1.2,1.8,1.2h13.1c0.6,0,1.2-0.3,1.6-0.8
	l9.9-13c0.5-0.6,0.5-1.5,0.2-2.2l-3.9-7.2c0.2,0,0.3,0,0.5,0c2.1,0,4-1.1,5.1-2.9l5.9,10.9C90.4,61.8,90.4,62.6,90,63.2z"/>
</svg>
